<?xml version="1.0" standalone="no"?>
<!DOCTYPE svg PUBLIC "-//W3C//DTD SVG 20010904//EN"
 "http://www.w3.org/TR/2001/REC-SVG-20010904/DTD/svg10.dtd">
<svg version="1.0" xmlns="http://www.w3.org/2000/svg"
 width="512.000000pt" height="512.000000pt" viewBox="0 0 512.000000 512.000000"
 preserveAspectRatio="xMidYMid meet">

<g transform="translate(0.000000,512.000000) scale(0.100000,-0.100000)"
fill="#c37b38" stroke="none">
<path d="M2605 5109 c-179 -26 -367 -114 -523 -247 -110 -94 -254 -289 -341
-460 -77 -153 -172 -426 -210 -607 -36 -170 -26 -157 -75 -103 -95 104 -135
255 -117 437 6 58 20 143 32 188 24 92 20 125 -16 149 -48 31 -78 13 -230
-140 -181 -180 -279 -304 -409 -515 -354 -574 -512 -1342 -400 -1951 63 -343
229 -697 464 -995 132 -168 376 -384 572 -508 530 -336 1211 -441 1822 -282
421 109 821 364 1107 703 287 340 467 731 533 1157 46 298 23 671 -64 1015
-158 625 -560 1165 -1165 1567 -194 129 -470 283 -506 283 -9 0 -27 -9 -40
-19 -24 -19 -24 -20 -24 -243 -1 -247 -13 -326 -74 -484 -47 -120 -43 -118
-106 -51 -60 63 -106 147 -151 272 -27 75 -28 90 -29 240 0 131 3 170 19 215
25 74 77 174 120 235 43 59 47 101 13 133 -26 24 -86 28 -202 11z m-5 -163 c0
-2 -13 -32 -30 -67 -58 -126 -80 -260 -68 -429 7 -115 22 -179 68 -300 60
-153 186 -312 285 -359 84 -39 112 -26 170 80 86 160 132 346 142 572 l6 147
66 -37 c413 -229 774 -542 1008 -873 262 -373 398 -763 433 -1250 35 -482 -87
-941 -356 -1341 -386 -574 -970 -906 -1644 -935 -767 -34 -1518 365 -1940
1031 -296 466 -378 1007 -249 1637 104 510 321 944 659 1318 l41 45 -6 -76
c-4 -42 -1 -114 5 -160 27 -208 113 -351 272 -455 110 -73 158 -54 178 68 73
461 235 853 453 1096 128 142 264 231 427 277 46 13 80 18 80 11z"/>
<path d="M1184 3270 c-102 -21 -194 -92 -235 -183 l-24 -52 0 -835 0 -835 26
-55 c33 -70 89 -126 159 -159 l55 -26 1435 0 1435 0 55 26 c70 33 126 89 159
159 l26 55 3 795 c2 563 0 812 -8 855 -14 75 -47 132 -106 183 -79 70 -114 77
-387 77 l-239 0 -24 -28 c-29 -34 -30 -56 -4 -90 l20 -25 238 -4 c252 -3 270
-7 315 -56 46 -51 46 -53 46 -877 1 -736 0 -782 -18 -820 -22 -48 -44 -69 -94
-90 -32 -13 -197 -15 -1414 -15 -901 0 -1391 4 -1415 10 -51 15 -105 77 -113
132 -3 24 -5 394 -3 824 l3 781 28 36 c59 78 -28 72 1112 75 l1019 2 23 22
c41 38 26 98 -28 117 -38 13 -1979 14 -2045 1z"/>
<path d="M1780 2620 c-19 -19 -20 -33 -20 -407 0 -214 4 -393 8 -399 14 -22
55 -36 85 -30 50 10 57 22 57 102 0 71 1 74 33 98 19 15 36 26 39 26 3 0 40
-52 83 -115 43 -63 84 -116 91 -119 24 -9 74 16 89 45 16 30 14 35 -121 225
l-44 61 75 70 c41 39 75 76 75 83 0 17 -56 70 -74 70 -9 0 -67 -47 -129 -104
l-112 -105 -2 242 c-3 233 -4 243 -24 260 -29 23 -84 22 -109 -3z"/>
<path d="M3382 2624 l-22 -15 0 -398 c0 -437 -3 -417 62 -427 24 -4 40 0 61
16 l27 21 0 390 c0 376 -1 390 -20 409 -24 24 -77 26 -108 4z"/>
<path d="M2460 2321 c-79 -24 -132 -75 -151 -144 -6 -24 -9 -90 -7 -154 3
-105 5 -114 33 -155 44 -63 109 -93 205 -93 143 1 224 62 174 133 -18 26 -53
28 -96 6 -45 -23 -113 -14 -147 20 -24 24 -26 33 -26 110 0 51 5 93 14 108 26
49 90 61 174 31 46 -17 48 -16 66 2 30 32 34 59 11 88 -36 45 -172 71 -250 48z"/>
<path d="M2890 2311 c-77 -28 -97 -62 -64 -109 18 -26 38 -28 87 -7 60 25 114
20 148 -14 19 -19 29 -40 29 -59 l0 -29 -92 -6 c-110 -7 -171 -34 -199 -87
-36 -67 -16 -160 44 -204 21 -15 43 -21 85 -20 61 0 99 15 145 58 l27 25 0
-24 c0 -28 34 -55 70 -55 14 0 36 7 48 16 21 15 22 21 22 177 0 173 -7 214
-43 268 -53 79 -193 111 -307 70z m200 -324 c0 -67 -97 -130 -141 -91 -19 17
-25 59 -11 81 12 19 53 32 105 32 42 1 47 -1 47 -22z"/>
</g>
</svg>
